<svg width="23" height="20" viewBox="0 0 23 20" fill="none" xmlns="http://www.w3.org/2000/svg">
<path d="M18.103 2.75671L21.7577 1.21522L20.191 4.84468L9.80599 14.9861L9.46389 15.9933L8.55532 15.1715L5.65579 18.071L5.26677 18.7729L4.73338 18.2395L4.31369 17.8198L4.98948 17.4047L7.82833 14.4445L7.00654 13.5359L7.9751 13.1552L18.103 2.75671Z" fill="#BB00B8"/>
<path d="M4.89676 2.9613L1.24205 1.41981L2.80879 5.04927L13.1938 15.1907L13.5359 16.1979L14.4444 15.3761L17.344 18.2756L17.733 18.9775L18.2664 18.4441L18.6861 18.0244L18.0103 17.6093L15.1714 14.6491L15.9932 13.7405L15.0247 13.3598L4.89676 2.9613Z" fill="#BB00B8"/>
<path d="M3 4L8 9" stroke="#FFD3ED" stroke-width="0.4" stroke-linecap="round"/>
<path d="M15 7L18 4" stroke="#FFD3ED" stroke-width="0.4" stroke-linecap="round"/>
</svg>
